:FULLY-SPECIFIED
:FORCE-ALL-JOINTS-BE-3DOF
:DEGREES
1427
root -2.08881 13.7328 12.6636 366.749 27.0786 366.588
lfemur 25.7019 -0.0814965 -10.4511
ltibia 16.4456 0 0
lfoot -15.5042 34.467 0
ltoes -24.3865 0 0
rfemur -65.674 -21.3997 12.2662
rtibia 73.8991 0 0
rfoot -9.03496 10.4383 0
rtoes 4.69146 0 0
lowerback 10.3073 2.04503 -10.2767
upperback -3.29057 1.21957 -0.97129
thorax -9.61265 1.17022 4.50606
lowerneck 0.041741 -11.6869 -10.5251
upperneck 5.89352 -16.0767 9.7892
head 3.39153 -7.99213 3.92449
lclavicle 9.70074e-15 4.63143e-15 0
lhumerus -73.7535 -18.1116 104.326
lradius 100.957 0 0
lwrist 58.2823 0 0
lhand -9.2844 42.1656 0
lfingers 7.12502 0 0
lthumb 16.6726 -288.531 0
rclavicle 9.70074e-15 4.63143e-15 0
rhumerus 63.058 -13.9515 -27.8291
rradius 82.2175 0 0
rwrist 26.8681 0 0
rhand -43.6866 -31.1984 0
rfingers 7.12502 0 0
rthumb -16.5195 -60.5151 0
1428
root -2.09225 13.7302 12.6655 366.758 27.081 366.598
lfemur 25.6851 -0.082492 -10.4379
ltibia 16.4721 0 0
lfoot -15.4901 34.4744 0
ltoes -24.2997 0 0
rfemur -65.7086 -21.4302 12.287
rtibia 73.9386 0 0
rfoot -9.05271 10.463 0
rtoes 4.74998 0 0
lowerback 10.2993 2.03833 -10.2898
upperback -3.29953 1.20942 -0.968744
thorax -9.61698 1.16673 4.51811
lowerneck 0.032965 -11.6817 -10.5148
upperneck 5.90178 -16.0683 9.7715
head 3.39225 -7.98789 3.91777
lclavicle 9.66417e-15 5.19082e-15 0
lhumerus -73.769 -18.1319 104.351
lradius 100.943 0 0
lwrist 58.3073 0 0
lhand -9.28241 42.1069 0
lfingers 7.12502 0 0
lthumb 16.6746 -288.59 0
rclavicle 9.66417e-15 5.19082e-15 0
rhumerus 63.0406 -13.9442 -27.8235
rradius 82.2293 0 0
rwrist 26.8293 0 0
rhand -43.6779 -31.1903 0
rfingers 7.12502 0 0
rthumb -16.511 -60.5077 0
1429
root -2.09568 13.7275 12.6674 366.767 27.0834 366.607
lfemur 25.6684 -0.0834875 -10.4247
ltibia 16.4987 0 0
lfoot -15.4759 34.4817 0
ltoes -24.2128 0 0
rfemur -65.7433 -21.4606 12.3078
rtibia 73.9781 0 0
rfoot -9.07045 10.4877 0
rtoes 4.8085 0 0
lowerback 10.2913 2.03162 -10.3029
upperback -3.3085 1.19927 -0.966198
thorax -9.6213 1.16324 4.53015
lowerneck 0.0241889 -11.6765 -10.5044
upperneck 5.91003 -16.06 9.75379
head 3.39298 -7.98365 3.91104
lclavicle 9.6276e-15 5.7502e-15 0
lhumerus -73.7846 -18.1522 104.375
lradius 100.93 0 0
lwrist 58.3322 0 0
lhand -9.28042 42.0483 0
lfingers 7.12502 0 0
lthumb 16.6765 -288.648 0
rclavicle 9.6276e-15 5.7502e-15 0
rhumerus 63.0232 -13.9369 -27.8178
rradius 82.2411 0 0
rwrist 26.7905 0 0
rhand -43.6691 -31.1822 0
rfingers 7.12502 0 0
rthumb -16.5026 -60.5004 0
1430
root -2.09912 13.7249 12.6694 366.776 27.0859 366.617
lfemur 25.6516 -0.0844831 -10.4115
ltibia 16.5252 0 0
lfoot -15.4617 34.4891 0
ltoes -24.1259 0 0
rfemur -65.7779 -21.4911 12.3286
rtibia 74.0176 0 0
rfoot -9.0882 10.5124 0
rtoes 4.86702 0 0
lowerback 10.2833 2.02491 -10.316
upperback -3.31747 1.18913 -0.963651
thorax -9.62563 1.15974 4.5422
lowerneck 0.0154129 -11.6714 -10.494
upperneck 5.91829 -16.0516 9.73609
head 3.3937 -7.97941 3.90431
lclavicle 9.59103e-15 6.30959e-15 0
lhumerus -73.8001 -18.1725 104.4
lradius 100.917 0 0
lwrist 58.3571 0 0
lhand -9.27843 41.9896 0
lfingers 7.12502 0 0
lthumb 16.6784 -288.707 0
rclavicle 9.59103e-15 6.30959e-15 0
rhumerus 63.0058 -13.9296 -27.8122
rradius 82.2528 0 0
rwrist 26.7517 0 0
rhand -43.6603 -31.1742 0
rfingers 7.12502 0 0
rthumb -16.4941 -60.493 0
1431
root -2.10255 13.7223 12.6713 366.785 27.0883 366.626
lfemur 25.6349 -0.0854786 -10.3983
ltibia 16.5517 0 0
lfoot -15.4476 34.4965 0
ltoes -24.039 0 0
rfemur -65.8125 -21.5215 12.3494
rtibia 74.0571 0 0
rfoot -9.10594 10.5371 0
rtoes 4.92554 0 0
lowerback 10.2753 2.0182 -10.3291
upperback -3.32644 1.17898 -0.961105
thorax -9.62995 1.15625 4.55424
lowerneck 0.0066368 -11.6662 -10.4836
upperneck 5.92655 -16.0432 9.71839
head 3.39442 -7.97518 3.89759
lclavicle 9.55446e-15 6.86897e-15 0
lhumerus -73.8157 -18.1928 104.424
lradius 100.903 0 0
lwrist 58.3821 0 0
lhand -9.27644 41.931 0
lfingers 7.12502 0 0
lthumb 16.6803 -288.766 0
rclavicle 9.55446e-15 6.86897e-15 0
rhumerus 62.9884 -13.9224 -27.8066
rradius 82.2646 0 0
rwrist 26.7129 0 0
rhand -43.6515 -31.1661 0
rfingers 7.12502 0 0
rthumb -16.4857 -60.4856 0
1432
root -2.10598 13.7196 12.6732 366.794 27.0908 366.636
lfemur 25.6182 -0.0864742 -10.385
ltibia 16.5783 0 0
lfoot -15.4334 34.5039 0
ltoes -23.9521 0 0
rfemur -65.8472 -21.552 12.3702
rtibia 74.0967 0 0
rfoot -9.12368 10.5618 0
rtoes 4.98406 0 0
lowerback 10.2673 2.01149 -10.3422
upperback -3.33541 1.16884 -0.958559
thorax -9.63427 1.15276 4.56628
lowerneck -0.00213926 -11.661 -10.4732
upperneck 5.9348 -16.0349 9.70068
head 3.39515 -7.97094 3.89086
lclavicle 9.51789e-15 7.42836e-15 0
lhumerus -73.8313 -18.2131 104.449
lradius 100.89 0 0
lwrist 58.407 0 0
lhand -9.27445 41.8724 0
lfingers 7.12502 0 0
lthumb 16.6822 -288.825 0
rclavicle 9.51789e-15 7.42836e-15 0
rhumerus 62.971 -13.9151 -27.8009
rradius 82.2764 0 0
rwrist 26.6741 0 0
rhand -43.6427 -31.158 0
rfingers 7.12502 0 0
rthumb -16.4772 -60.4783 0
1433
root -2.10942 13.717 12.6751 366.802 27.0932 366.645
lfemur 25.6014 -0.0874697 -10.3718
ltibia 16.6048 0 0
lfoot -15.4192 34.5113 0
ltoes -23.8652 0 0
rfemur -65.8818 -21.5824 12.391
rtibia 74.1362 0 0
rfoot -9.14143 10.5865 0
rtoes 5.04257 0 0
lowerback 10.2593 2.00478 -10.3553
upperback -3.34438 1.15869 -0.956013
thorax -9.6386 1.14927 4.57833
lowerneck -0.0109153 -11.6558 -10.4628
upperneck 5.94306 -16.0265 9.68298
head 3.39587 -7.9667 3.88413
lclavicle 9.48132e-15 7.98774e-15 0
lhumerus -73.8468 -18.2335 104.473
lradius 100.877 0 0
lwrist 58.4319 0 0
lhand -9.27246 41.8137 0
lfingers 7.12502 0 0
lthumb 16.6841 -288.884 0
rclavicle 9.48132e-15 7.98774e-15 0
rhumerus 62.9536 -13.9078 -27.7953
rradius 82.2882 0 0
rwrist 26.6354 0 0
rhand -43.6339 -31.1499 0
rfingers 7.12502 0 0
rthumb -16.4688 -60.4709 0
1434
root -2.11285 13.7144 12.677 366.811 27.0956 366.655
lfemur 25.5847 -0.0884652 -10.3586
ltibia 16.6313 0 0
lfoot -15.405 34.5186 0
ltoes -23.7784 0 0
rfemur -65.9164 -21.6129 12.4118
rtibia 74.1757 0 0
rfoot -9.15917 10.6112 0
rtoes 5.10109 0 0
lowerback 10.2513 1.99808 -10.3684
upperback -3.35334 1.14854 -0.953466
thorax -9.64292 1.14577 4.59037
lowerneck -0.0196914 -11.6507 -10.4525
upperneck 5.95132 -16.0181 9.66528
head 3.39659 -7.96246 3.8774
lclavicle 9.44475e-15 8.54713e-15 0
lhumerus -73.8624 -18.2538 104.498
lradius 100.864 0 0
lwrist 58.4568 0 0
lhand -9.27047 41.7551 0
lfingers 7.12502 0 0
lthumb 16.6861 -288.942 0
rclavicle 9.44475e-15 8.54713e-15 0
rhumerus 62.9362 -13.9005 -27.7897
rradius 82.2999 0 0
rwrist 26.5966 0 0
rhand -43.6252 -31.1419 0
rfingers 7.12502 0 0
rthumb -16.4603 -60.4635 0
1435
root -2.11629 13.7117 12.6789 366.82 27.0981 366.664
lfemur 25.5679 -0.0894608 -10.3454
ltibia 16.6579 0 0
lfoot -15.3909 34.526 0
ltoes -23.6915 0 0
rfemur -65.9511 -21.6433 12.4326
rtibia 74.2152 0 0
rfoot -9.17692 10.6359 0
rtoes 5.15961 0 0
lowerback 10.2433 1.99137 -10.3815
upperback -3.36231 1.1384 -0.95092
thorax -9.64725 1.14228 4.60242
lowerneck -0.0284674 -11.6455 -10.4421
upperneck 5.95957 -16.0098 9.64757
head 3.39732 -7.95822 3.87068
lclavicle 9.40818e-15 9.10651e-15 0
lhumerus -73.8779 -18.2741 104.522
lradius 100.85 0 0
lwrist 58.4818 0 0
lhand -9.26848 41.6964 0
lfingers 7.12502 0 0
lthumb 16.688 -289.001 0
rclavicle 9.40818e-15 9.10651e-15 0
rhumerus 62.9188 -13.8933 -27.784
rradius 82.3117 0 0
rwrist 26.5578 0 0
rhand -43.6164 -31.1338 0
rfingers 7.12502 0 0
rthumb -16.4519 -60.4562 0
